<svg xmlns="http://www.w3.org/2000/svg" viewBox="0 0 100 100">
  <circle cx="50" cy="50" r="48" fill="#1a6b3c" stroke="#c9a84c" stroke-width="4"/>
  <ellipse cx="50" cy="58" rx="28" ry="22" fill="#c9a84c"/>
  <ellipse cx="72" cy="46" rx="14" ry="12" fill="#c9a84c"/>
  <ellipse cx="82" cy="38" rx="8" ry="6" fill="#c9a84c"/>
  <path d="M88 40 Q96 54 90 66 Q88 72 85 66 Q89 54 80 42" fill="#c9a84c"/>
  <ellipse cx="30" cy="73" rx="7" ry="11" fill="#c9a84c"/>
  <ellipse cx="44" cy="76" rx="7" ry="11" fill="#c9a84c"/>
  <ellipse cx="58" cy="75" rx="7" ry="11" fill="#c9a84c"/>
  <ellipse cx="70" cy="72" rx="6" ry="10" fill="#c9a84c"/>
  <circle cx="76" cy="42" r="2" fill="#1a3a20"/>
  <ellipse cx="66" cy="32" rx="5" ry="10" fill="#c9a84c" transform="rotate(-30 66 32)"/>
  <path d="M18 60 Q10 68 12 76 Q14 80 18 76 Q15 70 22 64" fill="#c9a84c"/>
</svg>